{
	"asset":{
		"generator":"Khronos glTF Blender I/O v4.1.63",
		"version":"2.0"
	},
	"scene":0,
	"scenes":[
		{
			"name":"Scene",
			"nodes":[
				0,
				1,
				2
			]
		}
	],
	"nodes":[
		{
			"mesh":0,
			"name":"path146"
		},
		{
			"mesh":1,
			"name":"path18"
		},
		{
			"mesh":2,
			"name":"path19",
			"rotation":[
				0.005567238200455904,
				0,
				0,
				0.9999845027923584
			]
		}
	],
	"animations":[
		{
			"channels":[
				{
					"sampler":0,
					"target":{
						"node":0,
						"path":"rotation"
					}
				}
			],
			"name":"path146",
			"samplers":[
				{
					"input":12,
					"interpolation":"LINEAR",
					"output":13
				}
			]
		},
		{
			"channels":[
				{
					"sampler":0,
					"target":{
						"node":1,
						"path":"rotation"
					}
				}
			],
			"name":"path18",
			"samplers":[
				{
					"input":12,
					"interpolation":"LINEAR",
					"output":14
				}
			]
		},
		{
			"channels":[
				{
					"sampler":0,
					"target":{
						"node":2,
						"path":"rotation"
					}
				}
			],
			"name":"path19",
			"samplers":[
				{
					"input":12,
					"interpolation":"LINEAR",
					"output":15
				}
			]
		}
	],
	"materials":[
		{
			"doubleSided":true,
			"name":"SVGMat.002",
			"pbrMetallicRoughness":{
				"baseColorFactor":[
					0,
					0.2788942754268646,
					0.672443151473999,
					1
				],
				"metallicFactor":0.3265306353569031,
				"roughnessFactor":0.5156462788581848
			}
		},
		{
			"doubleSided":true,
			"name":"SVGMat.003",
			"pbrMetallicRoughness":{
				"baseColorFactor":[
					0,
					0.2788942754268646,
					0.672443151473999,
					1
				],
				"metallicFactor":0,
				"roughnessFactor":0.4000000059604645
			}
		},
		{
			"doubleSided":true,
			"name":"SVGMat.004",
			"pbrMetallicRoughness":{
				"baseColorFactor":[
					0,
					0.2788942754268646,
					0.672443151473999,
					1
				],
				"metallicFactor":0,
				"roughnessFactor":0.4000000059604645
			}
		}
	],
	"meshes":[
		{
			"name":"path146",
			"primitives":[
				{
					"attributes":{
						"POSITION":0,
						"NORMAL":1,
						"TEXCOORD_0":2
					},
					"indices":3,
					"material":0
				}
			]
		},
		{
			"name":"path18",
			"primitives":[
				{
					"attributes":{
						"POSITION":4,
						"NORMAL":5,
						"TEXCOORD_0":6
					},
					"indices":7,
					"material":1
				}
			]
		},
		{
			"name":"path19",
			"primitives":[
				{
					"attributes":{
						"POSITION":8,
						"NORMAL":9,
						"TEXCOORD_0":10
					},
					"indices":11,
					"material":2
				}
			]
		}
	],
	"accessors":[
		{
			"bufferView":0,
			"componentType":5126,
			"count":1762,
			"max":[
				3.7705624103546143,
				0.2818710207939148,
				8.495223999023438
			],
			"min":[
				-4.33823299407959,
				-0.004335913807153702,
				-8.242826461791992
			],
			"type":"VEC3"
		},
		{
			"bufferView":1,
			"componentType":5126,
			"count":1762,
			"type":"VEC3"
		},
		{
			"bufferView":2,
			"componentType":5126,
			"count":1762,
			"type":"VEC2"
		},
		{
			"bufferView":3,
			"componentType":5123,
			"count":3120,
			"type":"SCALAR"
		},
		{
			"bufferView":4,
			"componentType":5126,
			"count":1483,
			"max":[
				7.18037223815918,
				0.37923163175582886,
				5.308109760284424
			],
			"min":[
				-7.604435443878174,
				-0.010243484750390053,
				-6.249595642089844
			],
			"type":"VEC3"
		},
		{
			"bufferView":5,
			"componentType":5126,
			"count":1483,
			"type":"VEC3"
		},
		{
			"bufferView":6,
			"componentType":5126,
			"count":1483,
			"type":"VEC2"
		},
		{
			"bufferView":7,
			"componentType":5123,
			"count":3420,
			"type":"SCALAR"
		},
		{
			"bufferView":8,
			"componentType":5126,
			"count":1200,
			"max":[
				7.917929649353027,
				0.3190929591655731,
				4.480104923248291
			],
			"min":[
				-7.405645847320557,
				0,
				-5.672306060791016
			],
			"type":"VEC3"
		},
		{
			"bufferView":9,
			"componentType":5126,
			"count":1200,
			"type":"VEC3"
		},
		{
			"bufferView":10,
			"componentType":5126,
			"count":1200,
			"type":"VEC2"
		},
		{
			"bufferView":11,
			"componentType":5123,
			"count":3372,
			"type":"SCALAR"
		},
		{
			"bufferView":12,
			"componentType":5126,
			"count":250,
			"max":[
				10.416666666666666
			],
			"min":[
				0.041666666666666664
			],
			"type":"SCALAR"
		},
		{
			"bufferView":13,
			"componentType":5126,
			"count":250,
			"type":"VEC4"
		},
		{
			"bufferView":14,
			"componentType":5126,
			"count":250,
			"type":"VEC4"
		},
		{
			"bufferView":15,
			"componentType":5126,
			"count":250,
			"type":"VEC4"
		}
	],
	"bufferViews":[
		{
			"buffer":0,
			"byteLength":21144,
			"byteOffset":0,
			"target":34962
		},
		{
			"buffer":0,
			"byteLength":21144,
			"byteOffset":21144,
			"target":34962
		},
		{
			"buffer":0,
			"byteLength":14096,
			"byteOffset":42288,
			"target":34962
		},
		{
			"buffer":0,
			"byteLength":6240,
			"byteOffset":56384,
			"target":34963
		},
		{
			"buffer":0,
			"byteLength":17796,
			"byteOffset":62624,
			"target":34962
		},
		{
			"buffer":0,
			"byteLength":17796,
			"byteOffset":80420,
			"target":34962
		},
		{
			"buffer":0,
			"byteLength":11864,
			"byteOffset":98216,
			"target":34962
		},
		{
			"buffer":0,
			"byteLength":6840,
			"byteOffset":110080,
			"target":34963
		},
		{
			"buffer":0,
			"byteLength":14400,
			"byteOffset":116920,
			"target":34962
		},
		{
			"buffer":0,
			"byteLength":14400,
			"byteOffset":131320,
			"target":34962
		},
		{
			"buffer":0,
			"byteLength":9600,
			"byteOffset":145720,
			"target":34962
		},
		{
			"buffer":0,
			"byteLength":6744,
			"byteOffset":155320,
			"target":34963
		},
		{
			"buffer":0,
			"byteLength":1000,
			"byteOffset":162064
		},
		{
			"buffer":0,
			"byteLength":4000,
			"byteOffset":163064
		},
		{
			"buffer":0,
			"byteLength":4000,
			"byteOffset":167064
		},
		{
			"buffer":0,
			"byteLength":4000,
			"byteOffset":171064
		}
	],
	"buffers":[
		{
			"byteLength":175064,
			"uri":"tadiranLogo9.bin"
		}
	]
}
